<?xml version="1.0" encoding="UTF-8"?>
<svg xmlns="http://www.w3.org/2000/svg" width="980" height="520">
  <rect x="0" y="0" width="980" height="520" fill="#fff" />
  <text x="490" y="32" text-anchor="middle" font-size="24" font-family="Helvetica, Arial, sans-serif" fill="#111">Component Throughput</text>
  <line x1="90" y1="430" x2="960" y2="430" stroke="#ddd" />
<text x="80" y="434" text-anchor="end" font-size="12" fill="#333">0</text>
<line x1="90" y1="340" x2="960" y2="340" stroke="#ddd" />
<text x="80" y="344" text-anchor="end" font-size="12" fill="#333">27091.0938</text>
<line x1="90" y1="250" x2="960" y2="250" stroke="#ddd" />
<text x="80" y="254" text-anchor="end" font-size="12" fill="#333">54182.1876</text>
<line x1="90" y1="160" x2="960" y2="160" stroke="#ddd" />
<text x="80" y="164" text-anchor="end" font-size="12" fill="#333">81273.2814</text>
<line x1="90" y1="70" x2="960" y2="70" stroke="#ddd" />
<text x="80" y="74" text-anchor="end" font-size="12" fill="#333">108364.3752</text>
  <line x1="90" y1="70" x2="90" y2="430" stroke="#444" />
  <line x1="90" y1="430" x2="960" y2="430" stroke="#444" />
  <rect x="106" y="429.97508582644315" width="154.8" height="0.024914173556875096" fill="#f58518" />
<text x="183.4" y="421.97508582644315" text-anchor="middle" font-size="12" fill="#222">7.4995</text>
<text x="183.4" y="452" text-anchor="middle" font-size="13" fill="#222">crawler</text>
<rect x="276.8" y="429.99967934394425" width="154.8" height="0.0003206560557485184" fill="#f58518" />
<text x="354.20000000000005" y="421.99967934394425" text-anchor="middle" font-size="12" fill="#222">0.0965</text>
<text x="354.20000000000005" y="452" text-anchor="middle" font-size="13" fill="#222">indexer</text>
<rect x="447.6" y="429.8844353936675" width="154.8" height="0.11556460633249359" fill="#f58518" />
<text x="525" y="421.8844353936675" text-anchor="middle" font-size="12" fill="#222">34.7864</text>
<text x="525" y="452" text-anchor="middle" font-size="13" fill="#222">storage</text>
<rect x="618.4000000000001" y="70" width="154.8" height="360" fill="#f58518" />
<text x="695.8000000000001" y="62" text-anchor="middle" font-size="12" fill="#222">108364.3752</text>
<text x="695.8000000000001" y="452" text-anchor="middle" font-size="13" fill="#222">ranking</text>
<rect x="789.2" y="429.999873804731" width="154.8" height="0.00012619526900938872" fill="#f58518" />
<text x="866.6" y="421.999873804731" text-anchor="middle" font-size="12" fill="#222">0.038</text>
<text x="866.6" y="452" text-anchor="middle" font-size="13" fill="#222">search</text>
  <text x="30" y="250" text-anchor="middle" transform="rotate(-90 30 250)" font-size="13" fill="#222">Throughput (/sec)</text>
</svg>