<?xml version="1.0" encoding="UTF-8"?>
<svg xmlns="http://www.w3.org/2000/svg" width="980" height="520">
  <rect x="0" y="0" width="980" height="520" fill="#fff" />
  <text x="490" y="32" text-anchor="middle" font-size="24" font-family="Helvetica, Arial, sans-serif" fill="#111">Component Latency</text>
  <line x1="90" y1="430" x2="960" y2="430" stroke="#ddd" />
<text x="80" y="434" text-anchor="end" font-size="12" fill="#333">0</text>
<line x1="90" y1="340" x2="960" y2="340" stroke="#ddd" />
<text x="80" y="344" text-anchor="end" font-size="12" fill="#333">4215.818</text>
<line x1="90" y1="250" x2="960" y2="250" stroke="#ddd" />
<text x="80" y="254" text-anchor="end" font-size="12" fill="#333">8431.636</text>
<line x1="90" y1="160" x2="960" y2="160" stroke="#ddd" />
<text x="80" y="164" text-anchor="end" font-size="12" fill="#333">12647.454</text>
<line x1="90" y1="70" x2="960" y2="70" stroke="#ddd" />
<text x="80" y="74" text-anchor="end" font-size="12" fill="#333">16863.272</text>
  <line x1="90" y1="70" x2="90" y2="430" stroke="#444" />
  <line x1="90" y1="430" x2="960" y2="430" stroke="#444" />
  <rect x="106" y="427.207288252689" width="154.8" height="2.7927117473109613" fill="#f58518" />
<text x="183.4" y="419.207288252689" text-anchor="middle" font-size="12" fill="#222">130.8174</text>
<text x="183.4" y="452" text-anchor="middle" font-size="13" fill="#222">crawler</text>
<rect x="276.8" y="309.666769296018" width="154.8" height="120.33323070398201" fill="#f58518" />
<text x="354.20000000000005" y="301.666769296018" text-anchor="middle" font-size="12" fill="#222">5636.7</text>
<text x="354.20000000000005" y="452" text-anchor="middle" font-size="13" fill="#222">indexer</text>
<rect x="447.6" y="429.34881089655676" width="154.8" height="0.6511891034432369" fill="#f58518" />
<text x="525" y="421.34881089655676" text-anchor="middle" font-size="12" fill="#222">30.5033</text>
<text x="525" y="452" text-anchor="middle" font-size="13" fill="#222">storage</text>
<rect x="618.4000000000001" y="429.99978536202815" width="154.8" height="0.00021463797182574265" fill="#f58518" />
<text x="695.8000000000001" y="421.99978536202815" text-anchor="middle" font-size="12" fill="#222">0.0101</text>
<text x="695.8000000000001" y="452" text-anchor="middle" font-size="13" fill="#222">ranking</text>
<rect x="789.2" y="70" width="154.8" height="360" fill="#f58518" />
<text x="866.6" y="62" text-anchor="middle" font-size="12" fill="#222">16863.272</text>
<text x="866.6" y="452" text-anchor="middle" font-size="13" fill="#222">search</text>
  <text x="30" y="250" text-anchor="middle" transform="rotate(-90 30 250)" font-size="13" fill="#222">Latency (ms)</text>
</svg>