<?xml version="1.0" encoding="UTF-8"?>
<svg xmlns="http://www.w3.org/2000/svg" width="980" height="520">
  <rect x="0" y="0" width="980" height="520" fill="#fff" />
  <text x="490" y="32" text-anchor="middle" font-size="24" font-family="Helvetica, Arial, sans-serif" fill="#111">Component Latency</text>
  <line x1="90" y1="430" x2="960" y2="430" stroke="#ddd" />
<text x="80" y="434" text-anchor="end" font-size="12" fill="#333">0</text>
<line x1="90" y1="340" x2="960" y2="340" stroke="#ddd" />
<text x="80" y="344" text-anchor="end" font-size="12" fill="#333">1766.3165</text>
<line x1="90" y1="250" x2="960" y2="250" stroke="#ddd" />
<text x="80" y="254" text-anchor="end" font-size="12" fill="#333">3532.633</text>
<line x1="90" y1="160" x2="960" y2="160" stroke="#ddd" />
<text x="80" y="164" text-anchor="end" font-size="12" fill="#333">5298.9495</text>
<line x1="90" y1="70" x2="960" y2="70" stroke="#ddd" />
<text x="80" y="74" text-anchor="end" font-size="12" fill="#333">7065.266</text>
  <line x1="90" y1="70" x2="90" y2="430" stroke="#444" />
  <line x1="90" y1="430" x2="960" y2="430" stroke="#444" />
  <rect x="106" y="424.146667460072" width="154.8" height="5.853332539927965" fill="#f58518" />
<text x="183.4" y="416.146667460072" text-anchor="middle" font-size="12" fill="#222">114.876</text>
<text x="183.4" y="452" text-anchor="middle" font-size="13" fill="#222">crawler</text>
<rect x="276.8" y="279.24898859763823" width="154.8" height="150.75101140236174" fill="#f58518" />
<text x="354.20000000000005" y="271.24898859763823" text-anchor="middle" font-size="12" fill="#222">2958.6</text>
<text x="354.20000000000005" y="452" text-anchor="middle" font-size="13" fill="#222">indexer</text>
<rect x="447.6" y="428.5181723354699" width="154.8" height="1.481827664530093" fill="#f58518" />
<text x="525" y="420.5181723354699" text-anchor="middle" font-size="12" fill="#222">29.082</text>
<text x="525" y="452" text-anchor="middle" font-size="13" fill="#222">storage</text>
<rect x="618.4000000000001" y="429.9995232396083" width="154.8" height="0.0004767603916713382" fill="#f58518" />
<text x="695.8000000000001" y="421.9995232396083" text-anchor="middle" font-size="12" fill="#222">0.0094</text>
<text x="695.8000000000001" y="452" text-anchor="middle" font-size="13" fill="#222">ranking</text>
<rect x="789.2" y="70" width="154.8" height="360" fill="#f58518" />
<text x="866.6" y="62" text-anchor="middle" font-size="12" fill="#222">7065.266</text>
<text x="866.6" y="452" text-anchor="middle" font-size="13" fill="#222">search</text>
  <text x="30" y="250" text-anchor="middle" transform="rotate(-90 30 250)" font-size="13" fill="#222">Latency (ms)</text>
</svg>