<?xml version="1.0" encoding="UTF-8"?>
<svg xmlns="http://www.w3.org/2000/svg" width="980" height="520">
  <rect x="0" y="0" width="980" height="520" fill="#fff" />
  <text x="490" y="32" text-anchor="middle" font-size="24" font-family="Helvetica, Arial, sans-serif" fill="#111">Component Throughput</text>
  <line x1="90" y1="430" x2="960" y2="430" stroke="#ddd" />
<text x="80" y="434" text-anchor="end" font-size="12" fill="#333">0</text>
<line x1="90" y1="340" x2="960" y2="340" stroke="#ddd" />
<text x="80" y="344" text-anchor="end" font-size="12" fill="#333">25716.5929</text>
<line x1="90" y1="250" x2="960" y2="250" stroke="#ddd" />
<text x="80" y="254" text-anchor="end" font-size="12" fill="#333">51433.1857</text>
<line x1="90" y1="160" x2="960" y2="160" stroke="#ddd" />
<text x="80" y="164" text-anchor="end" font-size="12" fill="#333">77149.7786</text>
<line x1="90" y1="70" x2="960" y2="70" stroke="#ddd" />
<text x="80" y="74" text-anchor="end" font-size="12" fill="#333">102866.3714</text>
  <line x1="90" y1="70" x2="90" y2="430" stroke="#444" />
  <line x1="90" y1="430" x2="960" y2="430" stroke="#444" />
  <rect x="106" y="429.9695350924992" width="154.8" height="0.030464907500787706" fill="#f58518" />
<text x="183.4" y="421.9695350924992" text-anchor="middle" font-size="12" fill="#222">8.705</text>
<text x="183.4" y="452" text-anchor="middle" font-size="13" fill="#222">crawler</text>
<rect x="276.8" y="429.9988171141756" width="154.8" height="0.0011828858243896501" fill="#f58518" />
<text x="354.20000000000005" y="421.9988171141756" text-anchor="middle" font-size="12" fill="#222">0.338</text>
<text x="354.20000000000005" y="452" text-anchor="middle" font-size="13" fill="#222">indexer</text>
<rect x="447.6" y="429.8797419959733" width="154.8" height="0.12025800402668567" fill="#f58518" />
<text x="525" y="421.8797419959733" text-anchor="middle" font-size="12" fill="#222">34.3625</text>
<text x="525" y="452" text-anchor="middle" font-size="13" fill="#222">storage</text>
<rect x="618.4000000000001" y="70" width="154.8" height="360" fill="#f58518" />
<text x="695.8000000000001" y="62" text-anchor="middle" font-size="12" fill="#222">102866.3714</text>
<text x="695.8000000000001" y="452" text-anchor="middle" font-size="13" fill="#222">ranking</text>
<rect x="789.2" y="429.9995046649014" width="154.8" height="0.0004953350986011626" fill="#f58518" />
<text x="866.6" y="421.9995046649014" text-anchor="middle" font-size="12" fill="#222">0.1415</text>
<text x="866.6" y="452" text-anchor="middle" font-size="13" fill="#222">search</text>
  <text x="30" y="250" text-anchor="middle" transform="rotate(-90 30 250)" font-size="13" fill="#222">Throughput (/sec)</text>
</svg>