<?xml version="1.0" encoding="UTF-8"?>
<svg xmlns="http://www.w3.org/2000/svg" width="1040" height="560">
  <rect x="0" y="0" width="1040" height="560" fill="#fff" />
  <text x="520" y="34" text-anchor="middle" font-size="26" font-family="Helvetica, Arial, sans-serif" fill="#111">End-to-End Workflow Latency Scaling</text>
  <line x1="95" y1="465" x2="1000" y2="465" stroke="#ddd" />
<text x="85" y="469" text-anchor="end" font-size="12" fill="#333">0</text>
<line x1="95" y1="366.25" x2="1000" y2="366.25" stroke="#ddd" />
<text x="85" y="370.25" text-anchor="end" font-size="12" fill="#333">64310.6667</text>
<line x1="95" y1="267.5" x2="1000" y2="267.5" stroke="#ddd" />
<text x="85" y="271.5" text-anchor="end" font-size="12" fill="#333">128621.3333</text>
<line x1="95" y1="168.75" x2="1000" y2="168.75" stroke="#ddd" />
<text x="85" y="172.75" text-anchor="end" font-size="12" fill="#333">192932</text>
<line x1="95" y1="70" x2="1000" y2="70" stroke="#ddd" />
<text x="85" y="74" text-anchor="end" font-size="12" fill="#333">257242.6667</text>
  <line x1="95" y1="70" x2="95" y2="465" stroke="#444" />
  <line x1="95" y1="465" x2="1000" y2="465" stroke="#444" />
  <path d="M 95 77.2394418758941 L 547.5 70 L 1000 159.2124038521344" fill="none" stroke="#e4572e" stroke-width="3" />
  <circle cx="95" cy="77.2394418758941" r="6" fill="#e4572e" />
<text x="95" y="67.2394418758941" text-anchor="middle" font-size="12" fill="#222">252528</text>
<text x="95" y="489" text-anchor="middle" font-size="14" fill="#222">1</text>
<circle cx="547.5" cy="70" r="6" fill="#e4572e" />
<text x="547.5" y="60" text-anchor="middle" font-size="12" fill="#222">257242.6667</text>
<text x="547.5" y="489" text-anchor="middle" font-size="14" fill="#222">3</text>
<circle cx="1000" cy="159.2124038521344" r="6" fill="#e4572e" />
<text x="1000" y="149.2124038521344" text-anchor="middle" font-size="12" fill="#222">199143.3333</text>
<text x="1000" y="489" text-anchor="middle" font-size="14" fill="#222">6</text>
  <text x="520" y="534" text-anchor="middle" font-size="18" fill="#222">Node Count</text>
  <text x="30" y="267.5" text-anchor="middle" transform="rotate(-90 30 267.5)" font-size="16" fill="#222">Latency (ms)</text>
</svg>