<?xml version="1.0" encoding="UTF-8"?>
<svg xmlns="http://www.w3.org/2000/svg" width="1040" height="560">
  <rect x="0" y="0" width="1040" height="560" fill="#fff" />
  <text x="520" y="34" text-anchor="middle" font-size="26" font-family="Helvetica, Arial, sans-serif" fill="#111">Workflow Throughput Scaling (auto)</text>
  <line x1="95" y1="465" x2="1000" y2="465" stroke="#ddd" />
<text x="85" y="469" text-anchor="end" font-size="12" fill="#333">0</text>
<line x1="95" y1="366.25" x2="1000" y2="366.25" stroke="#ddd" />
<text x="85" y="370.25" text-anchor="end" font-size="12" fill="#333">1.2859</text>
<line x1="95" y1="267.5" x2="1000" y2="267.5" stroke="#ddd" />
<text x="85" y="271.5" text-anchor="end" font-size="12" fill="#333">2.5718</text>
<line x1="95" y1="168.75" x2="1000" y2="168.75" stroke="#ddd" />
<text x="85" y="172.75" text-anchor="end" font-size="12" fill="#333">3.8577</text>
<line x1="95" y1="70" x2="1000" y2="70" stroke="#ddd" />
<text x="85" y="74" text-anchor="end" font-size="12" fill="#333">5.1436</text>
  <line x1="95" y1="70" x2="95" y2="465" stroke="#444" />
  <line x1="95" y1="465" x2="1000" y2="465" stroke="#444" />
  <path d="M 95 326.59921495856634 L 547.5 157.72895487745552 L 1000 70" fill="none" stroke="#2f74b5" stroke-width="3" />
  <circle cx="95" cy="326.59921495856634" r="6" fill="#2f74b5" />
<text x="95" y="316.59921495856634" text-anchor="middle" font-size="12" fill="#222">1.8022</text>
<text x="95" y="489" text-anchor="middle" font-size="14" fill="#222">1</text>
<circle cx="547.5" cy="157.72895487745552" r="6" fill="#2f74b5" />
<text x="547.5" y="147.72895487745552" text-anchor="middle" font-size="12" fill="#222">4.0012</text>
<text x="547.5" y="489" text-anchor="middle" font-size="14" fill="#222">3</text>
<circle cx="1000" cy="70" r="6" fill="#2f74b5" />
<text x="1000" y="60" text-anchor="middle" font-size="12" fill="#222">5.1436</text>
<text x="1000" y="489" text-anchor="middle" font-size="14" fill="#222">6</text>
  <text x="520" y="534" text-anchor="middle" font-size="18" fill="#222">Node Count</text>
  <text x="30" y="267.5" text-anchor="middle" transform="rotate(-90 30 267.5)" font-size="16" fill="#222">Throughput (items/sec)</text>
</svg>