<?xml version="1.0" encoding="UTF-8"?>
<svg xmlns="http://www.w3.org/2000/svg" width="980" height="520">
  <rect x="0" y="0" width="980" height="520" fill="#fff" />
  <text x="490" y="32" text-anchor="middle" font-size="24" font-family="Helvetica, Arial, sans-serif" fill="#111">Component Latency</text>
  <line x1="90" y1="430" x2="960" y2="430" stroke="#ddd" />
<text x="80" y="434" text-anchor="end" font-size="12" fill="#333">0</text>
<line x1="90" y1="340" x2="960" y2="340" stroke="#ddd" />
<text x="80" y="344" text-anchor="end" font-size="12" fill="#333">3345.531</text>
<line x1="90" y1="250" x2="960" y2="250" stroke="#ddd" />
<text x="80" y="254" text-anchor="end" font-size="12" fill="#333">6691.0621</text>
<line x1="90" y1="160" x2="960" y2="160" stroke="#ddd" />
<text x="80" y="164" text-anchor="end" font-size="12" fill="#333">10036.5931</text>
<line x1="90" y1="70" x2="960" y2="70" stroke="#ddd" />
<text x="80" y="74" text-anchor="end" font-size="12" fill="#333">13382.1241</text>
  <line x1="90" y1="70" x2="90" y2="430" stroke="#444" />
  <line x1="90" y1="430" x2="960" y2="430" stroke="#444" />
  <rect x="106" y="426.75436895045465" width="154.8" height="3.2456310495453318" fill="#f58518" />
<text x="183.4" y="418.75436895045465" text-anchor="middle" font-size="12" fill="#222">120.6484</text>
<text x="183.4" y="452" text-anchor="middle" font-size="13" fill="#222">crawler</text>
<rect x="276.8" y="302.15034125109" width="154.8" height="127.84965874890996" fill="#f58518" />
<text x="354.20000000000005" y="294.15034125109" text-anchor="middle" font-size="12" fill="#222">4752.5</text>
<text x="354.20000000000005" y="452" text-anchor="middle" font-size="13" fill="#222">indexer</text>
<rect x="447.6" y="429.2529395071446" width="154.8" height="0.7470604928554017" fill="#f58518" />
<text x="525" y="421.2529395071446" text-anchor="middle" font-size="12" fill="#222">27.7702</text>
<text x="525" y="452" text-anchor="middle" font-size="13" fill="#222">storage</text>
<rect x="618.4000000000001" y="429.9997937689504" width="154.8" height="0.00020623104962079862" fill="#f58518" />
<text x="695.8000000000001" y="421.9997937689504" text-anchor="middle" font-size="12" fill="#222">0.0077</text>
<text x="695.8000000000001" y="452" text-anchor="middle" font-size="13" fill="#222">ranking</text>
<rect x="789.2" y="70" width="154.8" height="360" fill="#f58518" />
<text x="866.6" y="62" text-anchor="middle" font-size="12" fill="#222">13382.1241</text>
<text x="866.6" y="452" text-anchor="middle" font-size="13" fill="#222">search</text>
  <text x="30" y="250" text-anchor="middle" transform="rotate(-90 30 250)" font-size="13" fill="#222">Latency (ms)</text>
</svg>