<?xml version="1.0" encoding="UTF-8"?>
<svg xmlns="http://www.w3.org/2000/svg" width="980" height="520">
  <rect x="0" y="0" width="980" height="520" fill="#fff" />
  <text x="490" y="32" text-anchor="middle" font-size="24" font-family="Helvetica, Arial, sans-serif" fill="#111">Component Latency</text>
  <text x="490" y="54" text-anchor="middle" font-size="13" font-family="Helvetica, Arial, sans-serif" fill="#444">Generated by m6_benchmark.js</text>
  <line x1="90" y1="430" x2="960" y2="430" stroke="#ddd" />
<text x="80" y="434" text-anchor="end" font-size="12" fill="#333">0</text>
<line x1="90" y1="340" x2="960" y2="340" stroke="#ddd" />
<text x="80" y="344" text-anchor="end" font-size="12" fill="#333">44.6231</text>
<line x1="90" y1="250" x2="960" y2="250" stroke="#ddd" />
<text x="80" y="254" text-anchor="end" font-size="12" fill="#333">89.2462</text>
<line x1="90" y1="160" x2="960" y2="160" stroke="#ddd" />
<text x="80" y="164" text-anchor="end" font-size="12" fill="#333">133.8692</text>
<line x1="90" y1="70" x2="960" y2="70" stroke="#ddd" />
<text x="80" y="74" text-anchor="end" font-size="12" fill="#333">178.4923</text>
  <line x1="90" y1="70" x2="90" y2="430" stroke="#444" />
  <line x1="90" y1="430" x2="960" y2="430" stroke="#444" />
  <rect x="106" y="70" width="154.8" height="360" fill="#f58518" />
<text x="183.4" y="62" text-anchor="middle" font-size="12" fill="#222">178.4923</text>
<text x="183.4" y="452" text-anchor="middle" font-size="13" fill="#222">crawler</text>
<rect x="276.8" y="397.225478365799" width="154.8" height="32.774521634201" fill="#f58518" />
<text x="354.20000000000005" y="389.225478365799" text-anchor="middle" font-size="12" fill="#222">16.25</text>
<text x="354.20000000000005" y="452" text-anchor="middle" font-size="13" fill="#222">indexer</text>
<rect x="447.6" y="428.89219217591784" width="154.8" height="1.1078078240821836" fill="#f58518" />
<text x="525" y="420.89219217591784" text-anchor="middle" font-size="12" fill="#222">0.5493</text>
<text x="525" y="452" text-anchor="middle" font-size="13" fill="#222">storage</text>
<rect x="618.4000000000001" y="429.9580934881916" width="154.8" height="0.04190651180841998" fill="#f58518" />
<text x="695.8000000000001" y="421.9580934881916" text-anchor="middle" font-size="12" fill="#222">0.0208</text>
<text x="695.8000000000001" y="452" text-anchor="middle" font-size="13" fill="#222">ranking</text>
<rect x="789.2" y="326.52541479917284" width="154.8" height="103.47458520082714" fill="#f58518" />
<text x="866.6" y="318.52541479917284" text-anchor="middle" font-size="12" fill="#222">51.3039</text>
<text x="866.6" y="452" text-anchor="middle" font-size="13" fill="#222">search</text>
  <text x="30" y="250" text-anchor="middle" transform="rotate(-90 30 250)" font-size="13" fill="#222">Latency (ms)</text>
</svg>