<?xml version="1.0" encoding="UTF-8"?>
<svg xmlns="http://www.w3.org/2000/svg" width="980" height="520">
  <rect x="0" y="0" width="980" height="520" fill="#fff" />
  <text x="490" y="32" text-anchor="middle" font-size="24" font-family="Helvetica, Arial, sans-serif" fill="#111">Component Throughput</text>
  <text x="490" y="54" text-anchor="middle" font-size="13" font-family="Helvetica, Arial, sans-serif" fill="#444">Generated by m6_benchmark.js</text>
  <line x1="90" y1="430" x2="960" y2="430" stroke="#ddd" />
<text x="80" y="434" text-anchor="end" font-size="12" fill="#333">0</text>
<line x1="90" y1="340" x2="960" y2="340" stroke="#ddd" />
<text x="80" y="344" text-anchor="end" font-size="12" fill="#333">10220.02</text>
<line x1="90" y1="250" x2="960" y2="250" stroke="#ddd" />
<text x="80" y="254" text-anchor="end" font-size="12" fill="#333">20440.04</text>
<line x1="90" y1="160" x2="960" y2="160" stroke="#ddd" />
<text x="80" y="164" text-anchor="end" font-size="12" fill="#333">30660.06</text>
<line x1="90" y1="70" x2="960" y2="70" stroke="#ddd" />
<text x="80" y="74" text-anchor="end" font-size="12" fill="#333">40880.08</text>
  <line x1="90" y1="70" x2="90" y2="430" stroke="#444" />
  <line x1="90" y1="430" x2="960" y2="430" stroke="#444" />
  <rect x="106" y="429.95066316798824" width="154.8" height="0.049336832011751354" fill="#f58518" />
<text x="183.4" y="421.95066316798824" text-anchor="middle" font-size="12" fill="#222">5.6025</text>
<text x="183.4" y="452" text-anchor="middle" font-size="13" fill="#222">crawler</text>
<rect x="276.8" y="429.45807723076894" width="154.8" height="0.5419227692310904" fill="#f58518" />
<text x="354.20000000000005" y="421.45807723076894" text-anchor="middle" font-size="12" fill="#222">61.5385</text>
<text x="354.20000000000005" y="452" text-anchor="middle" font-size="13" fill="#222">indexer</text>
<rect x="447.6" y="414.1327793203855" width="154.8" height="15.867220679614489" fill="#f58518" />
<text x="525" y="406.1327793203855" text-anchor="middle" font-size="12" fill="#222">1801.8146</text>
<text x="525" y="452" text-anchor="middle" font-size="13" fill="#222">storage</text>
<rect x="618.4000000000001" y="70" width="154.8" height="360" fill="#f58518" />
<text x="695.8000000000001" y="62" text-anchor="middle" font-size="12" fill="#222">40880.08</text>
<text x="695.8000000000001" y="452" text-anchor="middle" font-size="13" fill="#222">ranking</text>
<rect x="789.2" y="429.82837083626765" width="154.8" height="0.1716291637323732" fill="#f58518" />
<text x="866.6" y="421.82837083626765" text-anchor="middle" font-size="12" fill="#222">19.4895</text>
<text x="866.6" y="452" text-anchor="middle" font-size="13" fill="#222">search</text>
  <text x="30" y="250" text-anchor="middle" transform="rotate(-90 30 250)" font-size="13" fill="#222">Throughput (/sec)</text>
</svg>