<?xml version="1.0" encoding="UTF-8"?>
<svg xmlns="http://www.w3.org/2000/svg" width="980" height="520">
  <rect x="0" y="0" width="980" height="520" fill="#fff" />
  <text x="490" y="32" text-anchor="middle" font-size="24" font-family="Helvetica, Arial, sans-serif" fill="#111">Component Latency</text>
  <line x1="90" y1="430" x2="960" y2="430" stroke="#ddd" />
<text x="80" y="434" text-anchor="end" font-size="12" fill="#333">0</text>
<line x1="90" y1="340" x2="960" y2="340" stroke="#ddd" />
<text x="80" y="344" text-anchor="end" font-size="12" fill="#333">38.9483</text>
<line x1="90" y1="250" x2="960" y2="250" stroke="#ddd" />
<text x="80" y="254" text-anchor="end" font-size="12" fill="#333">77.8966</text>
<line x1="90" y1="160" x2="960" y2="160" stroke="#ddd" />
<text x="80" y="164" text-anchor="end" font-size="12" fill="#333">116.8448</text>
<line x1="90" y1="70" x2="960" y2="70" stroke="#ddd" />
<text x="80" y="74" text-anchor="end" font-size="12" fill="#333">155.7931</text>
  <line x1="90" y1="70" x2="90" y2="430" stroke="#444" />
  <line x1="90" y1="430" x2="960" y2="430" stroke="#444" />
  <rect x="106" y="70" width="154.8" height="360" fill="#f58518" />
<text x="183.4" y="62" text-anchor="middle" font-size="12" fill="#222">155.7931</text>
<text x="183.4" y="452" text-anchor="middle" font-size="13" fill="#222">crawler</text>
<rect x="276.8" y="405.50597609561754" width="154.8" height="24.494023904382466" fill="#f58518" />
<text x="354.20000000000005" y="397.50597609561754" text-anchor="middle" font-size="12" fill="#222">10.6</text>
<text x="354.20000000000005" y="452" text-anchor="middle" font-size="13" fill="#222">indexer</text>
<rect x="447.6" y="428.1384930810095" width="154.8" height="1.8615069189904698" fill="#f58518" />
<text x="525" y="420.1384930810095" text-anchor="middle" font-size="12" fill="#222">0.8056</text>
<text x="525" y="452" text-anchor="middle" font-size="13" fill="#222">storage</text>
<rect x="618.4000000000001" y="429.8648978964146" width="154.8" height="0.13510210358538777" fill="#f58518" />
<text x="695.8000000000001" y="421.8648978964146" text-anchor="middle" font-size="12" fill="#222">0.0585</text>
<text x="695.8000000000001" y="452" text-anchor="middle" font-size="13" fill="#222">ranking</text>
<rect x="789.2" y="398.59684509960243" width="154.8" height="31.403154900397595" fill="#f58518" />
<text x="866.6" y="390.59684509960243" text-anchor="middle" font-size="12" fill="#222">13.59</text>
<text x="866.6" y="452" text-anchor="middle" font-size="13" fill="#222">search</text>
  <text x="30" y="250" text-anchor="middle" transform="rotate(-90 30 250)" font-size="13" fill="#222">Latency (ms)</text>
</svg>