<?xml version="1.0" encoding="UTF-8"?>
<svg xmlns="http://www.w3.org/2000/svg" width="980" height="520">
  <rect x="0" y="0" width="980" height="520" fill="#fff" />
  <text x="490" y="32" text-anchor="middle" font-size="24" font-family="Helvetica, Arial, sans-serif" fill="#111">Component Throughput</text>
  <line x1="90" y1="430" x2="960" y2="430" stroke="#ddd" />
<text x="80" y="434" text-anchor="end" font-size="12" fill="#333">0</text>
<line x1="90" y1="340" x2="960" y2="340" stroke="#ddd" />
<text x="80" y="344" text-anchor="end" font-size="12" fill="#333">18070.2426</text>
<line x1="90" y1="250" x2="960" y2="250" stroke="#ddd" />
<text x="80" y="254" text-anchor="end" font-size="12" fill="#333">36140.4853</text>
<line x1="90" y1="160" x2="960" y2="160" stroke="#ddd" />
<text x="80" y="164" text-anchor="end" font-size="12" fill="#333">54210.7279</text>
<line x1="90" y1="70" x2="960" y2="70" stroke="#ddd" />
<text x="80" y="74" text-anchor="end" font-size="12" fill="#333">72280.9706</text>
  <line x1="90" y1="70" x2="90" y2="430" stroke="#444" />
  <line x1="90" y1="430" x2="960" y2="430" stroke="#444" />
  <rect x="106" y="429.9868126152101" width="154.8" height="0.013187384789892155" fill="#f58518" />
<text x="183.4" y="421.9868126152101" text-anchor="middle" font-size="12" fill="#222">2.6478</text>
<text x="183.4" y="452" text-anchor="middle" font-size="13" fill="#222">crawler</text>
<rect x="276.8" y="429.99489172923074" width="154.8" height="0.005108270769258244" fill="#f58518" />
<text x="354.20000000000005" y="421.99489172923074" text-anchor="middle" font-size="12" fill="#222">1.0256</text>
<text x="354.20000000000005" y="452" text-anchor="middle" font-size="13" fill="#222">indexer</text>
<rect x="447.6" y="420.53811272782116" width="154.8" height="9.461887272178855" fill="#f58518" />
<text x="525" y="412.53811272782116" text-anchor="middle" font-size="12" fill="#222">1899.7622</text>
<text x="525" y="452" text-anchor="middle" font-size="13" fill="#222">storage</text>
<rect x="618.4000000000001" y="70" width="154.8" height="360" fill="#f58518" />
<text x="695.8000000000001" y="62" text-anchor="middle" font-size="12" fill="#222">72280.9706</text>
<text x="695.8000000000001" y="452" text-anchor="middle" font-size="13" fill="#222">ranking</text>
<rect x="789.2" y="429.9756858849038" width="154.8" height="0.02431411509621963" fill="#f58518" />
<text x="866.6" y="421.9756858849038" text-anchor="middle" font-size="12" fill="#222">4.8818</text>
<text x="866.6" y="452" text-anchor="middle" font-size="13" fill="#222">search</text>
  <text x="30" y="250" text-anchor="middle" transform="rotate(-90 30 250)" font-size="13" fill="#222">Throughput (/sec)</text>
</svg>